<svg width="85" height="85" viewBox="0 0 85 85" fill="none" xmlns="http://www.w3.org/2000/svg">
<path d="M36.302 35.5228C36.302 37.4353 36.8333 37.7186 38.0374 38.1436L39.8437 38.7811V32.7603H38.7812C37.4353 32.7603 36.302 33.9998 36.302 35.5228ZM45.1562 52.2394H46.2187C47.5999 52.2394 48.6978 50.9998 48.6978 49.4769C48.6978 47.5644 48.1666 47.2811 46.9624 46.8561L45.1562 46.2186V52.2394Z" fill="#0F7DFF"/>
<path d="M69.3458 19.4085L62.0853 26.6689C61.5541 27.2002 60.8812 27.4481 60.2083 27.4481C59.5353 27.4481 58.8624 27.2002 58.3312 26.6689C57.8372 26.1691 57.5601 25.4946 57.5601 24.7918C57.5601 24.0891 57.8372 23.4146 58.3312 22.9147L65.5916 15.6543C59.3583 10.3418 51.3187 7.0835 42.4999 7.0835C22.9499 7.0835 7.08325 22.9502 7.08325 42.5002C7.08325 62.0502 22.9499 77.9168 42.4999 77.9168C62.0499 77.9168 77.9166 62.0502 77.9166 42.5002C77.9166 33.6814 74.6583 25.6418 69.3458 19.4085ZM48.6978 41.8627C50.9645 42.6772 54.0103 44.3064 54.0103 49.5127C54.0103 53.9397 50.5041 57.5877 46.2187 57.5877H45.1562V58.4731C45.1562 59.9252 43.952 61.1293 42.4999 61.1293C41.0478 61.1293 39.8437 59.9252 39.8437 58.4731V57.5877H39.5603C34.8499 57.5877 30.9895 53.621 30.9895 48.7335C30.9895 47.246 32.1937 46.0418 33.6458 46.0418C35.0978 46.0418 36.302 47.246 36.302 48.6981C36.302 50.646 37.7541 52.2397 39.5603 52.2397H39.8437V44.3772L36.302 43.1377C34.0353 42.3231 30.9895 40.6939 30.9895 35.4877C30.9895 31.0606 34.4958 27.4127 38.7812 27.4127H39.8437V26.5627C39.8437 25.1106 41.0478 23.9064 42.4999 23.9064C43.952 23.9064 45.1562 25.1106 45.1562 26.5627V27.4481H45.4395C50.1499 27.4481 54.0103 31.4147 54.0103 36.3022C54.0103 37.7543 52.8062 38.9585 51.3541 38.9585C49.902 38.9585 48.6978 37.7543 48.6978 36.3022C48.6978 34.3543 47.2458 32.7606 45.4395 32.7606H45.1562V40.6231L48.6978 41.8627ZM80.3603 6.05641C80.0803 5.40419 79.5605 4.8844 78.9083 4.60433C78.5897 4.49118 78.2546 4.43135 77.9166 4.42725H63.7499C62.2978 4.42725 61.0937 5.63141 61.0937 7.0835C61.0937 8.53558 62.2978 9.73975 63.7499 9.73975H71.5062L65.5916 15.6543C66.9374 16.8231 68.177 18.0627 69.3458 19.4085L75.2603 13.4939V21.2502C75.2603 22.7022 76.4645 23.9064 77.9166 23.9064C79.3687 23.9064 80.5728 22.7022 80.5728 21.2502V7.0835C80.5728 6.72933 80.502 6.41058 80.3603 6.05641Z" fill="#0F7DFF"/>
</svg>
