<svg width="85" height="85" viewBox="0 0 85 85" fill="none" xmlns="http://www.w3.org/2000/svg">
<path d="M57.3395 7.0835H27.6603C14.7687 7.0835 7.08325 14.7689 7.08325 27.6606V57.3043C7.08325 70.2314 14.7687 77.9168 27.6603 77.9168H57.3041C70.1958 77.9168 77.8812 70.2314 77.8812 57.3397V27.6606C77.9166 14.7689 70.2312 7.0835 57.3395 7.0835ZM55.7812 55.7814H29.2187C27.7666 55.7814 26.5624 54.5772 26.5624 53.1252C26.5624 51.6731 27.7666 50.4689 29.2187 50.4689H55.7812C57.2332 50.4689 58.4374 51.6731 58.4374 53.1252C58.4374 54.5772 57.2332 55.7814 55.7812 55.7814ZM55.7812 34.5314H29.2187C27.7666 34.5314 26.5624 33.3272 26.5624 31.8752C26.5624 30.4231 27.7666 29.2189 29.2187 29.2189H55.7812C57.2332 29.2189 58.4374 30.4231 58.4374 31.8752C58.4374 33.3272 57.2332 34.5314 55.7812 34.5314Z" fill="#0F7DFF"/>
</svg>
