<svg width="85" height="85" viewBox="0 0 85 85" fill="none" xmlns="http://www.w3.org/2000/svg">
<path d="M42.5 7.0835C33.2208 7.0835 25.6771 14.6272 25.6771 23.9064C25.6771 33.0085 32.7958 40.3752 42.075 40.6939C42.3583 40.6585 42.6417 40.6585 42.8542 40.6939H43.1021C47.456 40.5486 51.5829 38.7158 54.61 35.583C57.6371 32.4501 59.3272 28.2628 59.3229 23.9064C59.3229 14.6272 51.7791 7.0835 42.5 7.0835ZM60.4916 50.1112C50.6104 43.5237 34.4958 43.5237 24.5437 50.1112C20.0458 53.1216 17.5667 57.1945 17.5667 61.5508C17.5667 65.907 20.0458 69.9445 24.5083 72.9195C29.4667 76.2487 35.9833 77.9133 42.5 77.9133C49.0166 77.9133 55.5333 76.2487 60.4916 72.9195C64.9541 69.9091 67.4333 65.8716 67.4333 61.48C67.3979 57.1237 64.9541 53.0862 60.4916 50.1112Z" fill="#0F7DFF"/>
</svg>
