<svg width="85" height="85" viewBox="0 0 85 85" fill="none" xmlns="http://www.w3.org/2000/svg">
<path d="M31.875 7.0835C22.5958 7.0835 15.0521 14.6272 15.0521 23.9064C15.0521 33.0085 22.1708 40.3752 31.45 40.6939C31.7333 40.6585 32.0167 40.6585 32.2292 40.6939H32.4771C36.831 40.5486 40.9579 38.7158 43.985 35.583C47.0121 32.4501 48.7022 28.2628 48.6979 23.9064C48.6979 14.6272 41.1542 7.0835 31.875 7.0835ZM49.8666 50.1112C39.9854 43.5237 23.8708 43.5237 13.9187 50.1112C9.42082 53.1216 6.94165 57.1945 6.94165 61.5508C6.94165 65.907 9.42082 69.9445 13.8833 72.9195C18.8417 76.2487 25.3583 77.9133 31.875 77.9133C38.3917 77.9133 44.9083 76.2487 49.8666 72.9195C54.3292 69.9091 56.8083 65.8716 56.8083 61.48C56.7729 57.1237 54.3292 53.0862 49.8666 50.1112ZM70.7979 25.9889C71.3646 32.8597 66.4771 38.8806 59.7125 39.6952H59.5354C59.3229 39.6952 59.1104 39.6952 58.9333 39.766C55.4979 39.9431 52.3458 38.8452 49.9729 36.8264C53.6208 33.5681 55.7104 28.6806 55.2854 23.3681C55.0424 20.6056 54.1042 17.9495 52.5583 15.6472C54.4141 14.7444 56.4617 14.3066 58.5244 14.3716C60.5871 14.4366 62.6031 15.0025 64.3984 16.0204C66.1936 17.0383 67.7143 18.4776 68.8292 20.2143C69.9441 21.951 70.6198 23.9329 70.7979 25.9889Z" fill="#0F7DFF"/>
<path d="M77.8741 58.7564C77.5908 62.1918 75.3949 65.1668 71.7116 67.1855C68.1699 69.1334 63.7074 70.0543 59.2804 69.948C61.8304 67.6459 63.3179 64.7772 63.6012 61.7314C63.9554 57.3397 61.8658 53.1251 57.6866 49.7605C55.3137 47.8834 52.5512 46.3959 49.5408 45.298C57.3679 43.0314 67.2137 44.5543 73.2699 49.4418C76.5283 52.0626 78.1929 55.3564 77.8741 58.7564Z" fill="#0F7DFF"/>
</svg>
