<svg width="48" height="48" viewBox="0 0 48 48" fill="none" xmlns="http://www.w3.org/2000/svg">
<path d="M18 4C12.76 4 8.50004 8.26 8.50004 13.5C8.50004 18.64 12.52 22.8 17.76 22.98C17.92 22.96 18.08 22.96 18.2 22.98H18.34C20.7988 22.898 23.1292 21.863 24.8386 20.0938C26.548 18.3247 27.5025 15.9601 27.5 13.5C27.5 8.26 23.24 4 18 4ZM28.16 28.298C22.58 24.578 13.48 24.578 7.86004 28.298C5.32004 29.998 3.92004 32.298 3.92004 34.758C3.92004 37.218 5.32004 39.498 7.84004 41.178C10.64 43.058 14.32 43.998 18 43.998C21.68 43.998 25.36 43.058 28.16 41.178C30.68 39.478 32.08 37.198 32.08 34.718C32.06 32.258 30.68 29.978 28.16 28.298ZM39.98 14.676C40.3 18.556 37.54 21.956 33.72 22.416H33.62C33.5 22.416 33.38 22.416 33.28 22.456C31.34 22.556 29.56 21.936 28.22 20.796C30.28 18.956 31.46 16.196 31.22 13.196C31.0828 11.636 30.553 10.1361 29.68 8.836C30.728 8.32616 31.8843 8.07893 33.0491 8.11564C34.214 8.15235 35.3524 8.47189 36.3662 9.04671C37.38 9.62152 38.2387 10.4343 38.8683 11.4151C39.4979 12.3958 39.8795 13.5149 39.98 14.676Z" fill="white"/>
<path d="M43.976 33.1798C43.816 35.1198 42.576 36.7998 40.496 37.9398C38.496 39.0398 35.976 39.5598 33.476 39.4998C34.916 38.1998 35.756 36.5798 35.916 34.8598C36.116 32.3798 34.936 29.9998 32.576 28.0998C31.236 27.0398 29.676 26.1998 27.976 25.5798C32.396 24.2998 37.956 25.1598 41.376 27.9198C43.216 29.3998 44.156 31.2598 43.976 33.1798Z" fill="white"/>
</svg>
