<svg width="85" height="85" viewBox="0 0 85 85" fill="none" xmlns="http://www.w3.org/2000/svg">
<path d="M67.8938 23.5168C66.3709 15.8314 60.6688 12.4668 52.7354 12.4668H21.6396C12.2896 12.4668 6.05627 17.1418 6.05627 28.0501V46.2897C6.05627 54.1522 9.27919 58.7564 14.5917 60.7397C15.3709 61.023 16.2209 61.271 17.1063 61.4126C18.5229 61.7314 20.0459 61.873 21.6396 61.873H52.7709C62.1209 61.873 68.3542 57.198 68.3542 46.2897V28.0501C68.3542 26.3855 68.2125 24.898 67.8938 23.5168ZM19.5854 42.5001C19.5854 43.9522 18.3813 45.1564 16.9292 45.1564C15.4771 45.1564 14.2729 43.9522 14.2729 42.5001V31.8751C14.2729 30.423 15.4771 29.2189 16.9292 29.2189C18.3813 29.2189 19.5854 30.423 19.5854 31.8751V42.5001ZM37.1875 46.5376C32.0167 46.5376 27.8375 42.3585 27.8375 37.1876C27.8375 32.0168 32.0167 27.8376 37.1875 27.8376C42.3584 27.8376 46.5375 32.0168 46.5375 37.1876C46.5375 42.3585 42.3584 46.5376 37.1875 46.5376ZM60.0667 42.5001C60.0667 43.9522 58.8625 45.1564 57.4104 45.1564C55.9584 45.1564 54.7542 43.9522 54.7542 42.5001V31.8751C54.7542 30.423 55.9584 29.2189 57.4104 29.2189C58.8625 29.2189 60.0667 30.423 60.0667 31.8751V42.5001Z" fill="#0F7DFF"/>
<path d="M78.9863 38.6681V56.9077C78.9863 67.816 72.7529 72.5264 63.3675 72.5264H32.2717C29.6155 72.5264 27.2425 72.1368 25.1884 71.3577C23.5238 70.7556 22.0717 69.8702 20.9029 68.7368C20.2654 68.1348 20.7613 67.1785 21.6467 67.1785H52.7425C65.8467 67.1785 73.6384 59.3868 73.6384 46.3181V28.0431C73.6384 27.1931 74.5946 26.6618 75.1967 27.2993C77.605 29.8493 78.9863 33.5681 78.9863 38.6681Z" fill="#0F7DFF"/>
</svg>
