<svg width="85" height="85" viewBox="0 0 85 85" fill="none" xmlns="http://www.w3.org/2000/svg">
<path d="M17.7084 53.1248C14.3792 53.1248 11.2979 54.2936 8.85419 56.2415C7.19175 57.5626 5.85014 59.2432 4.93006 61.1569C4.00997 63.0707 3.53531 65.1681 3.54169 67.2915C3.54169 75.1186 9.88127 81.4582 17.7084 81.4582C21.1519 81.4532 24.4757 80.1942 27.0584 77.9165C29.9979 75.3311 31.875 71.5415 31.875 67.2915C31.875 59.4644 25.5354 53.1248 17.7084 53.1248ZM21.25 68.1769C21.25 69.0978 20.7542 69.9832 19.975 70.4436L15.5479 73.0998C15.1229 73.3832 14.6271 73.4894 14.1667 73.4894C13.2813 73.4894 12.3959 73.029 11.9 72.2144C11.1563 70.9394 11.5459 69.3103 12.8209 68.5665L15.9729 66.6894V62.8644C15.9682 62.5173 16.0326 62.1727 16.1622 61.8506C16.2918 61.5285 16.4841 61.2354 16.7279 60.9883C16.9718 60.7411 17.2623 60.5449 17.5826 60.411C17.9029 60.2771 18.2466 60.2081 18.5938 60.2082C20.0459 60.2082 21.25 61.4123 21.25 62.8644V68.1769ZM52.5938 13.9894V27.4478H47.2813V13.9894C47.2813 13.0332 46.4313 12.5728 45.8646 12.5728C45.6875 12.5728 45.5104 12.6082 45.3334 12.679L17.2479 23.2686C15.3709 23.9769 14.1667 25.7478 14.1667 27.7665V30.1394C10.9438 32.5478 8.85419 36.4082 8.85419 40.7644V27.7665C8.85419 23.5519 11.4396 19.7978 15.3709 18.3103L43.4917 7.68525C44.2709 7.40192 45.0854 7.26025 45.8646 7.26025C49.4063 7.26025 52.5938 10.129 52.5938 13.9894ZM76.1459 51.354V54.8957C76.1459 55.3593 75.9642 55.8044 75.6398 56.1355C75.3153 56.4666 74.8739 56.6572 74.4104 56.6665H69.2396C67.3625 56.6665 65.6625 55.2853 65.5209 53.4436C65.4146 52.3457 65.8396 51.3186 66.5479 50.6103C66.8686 50.2781 67.2542 50.0155 67.6807 49.8389C68.1072 49.6622 68.5655 49.5751 69.0271 49.5832H74.375C75.4021 49.6186 76.1459 50.3978 76.1459 51.354Z" fill="#0F7DFF"/>
<path d="M68.9916 45.8644H72.6041C74.552 45.8644 76.1458 44.2707 76.1458 42.3228V40.7644C76.1458 33.4332 70.1604 27.4478 62.8291 27.4478H22.1708C19.1604 27.4478 16.3979 28.4394 14.1666 30.1394C10.9437 32.5478 8.85413 36.4082 8.85413 40.7644V47.0686C8.85413 48.4144 10.2708 49.2644 11.5458 48.8394C13.5291 48.1665 15.6187 47.8123 17.7083 47.8123C28.4395 47.8123 37.1875 56.5603 37.1875 67.2915C37.1875 69.8415 36.5145 72.6394 35.452 75.1186C34.8854 76.3936 35.7708 77.9165 37.152 77.9165H62.8291C70.1604 77.9165 76.1458 71.9311 76.1458 64.5998V63.9269C76.1458 61.979 74.552 60.3853 72.6041 60.3853H69.5229C66.1229 60.3853 62.8645 58.2957 61.9791 55.0019C61.2708 52.3103 62.1208 49.6894 63.8916 47.9894C65.202 46.6436 67.0083 45.8644 68.9916 45.8644ZM49.5833 45.1561H31.875C30.4229 45.1561 29.2187 43.9519 29.2187 42.4998C29.2187 41.0478 30.4229 39.8436 31.875 39.8436H49.5833C51.0354 39.8436 52.2395 41.0478 52.2395 42.4998C52.2395 43.9519 51.0354 45.1561 49.5833 45.1561Z" fill="#0F7DFF"/>
</svg>
