<svg width="85" height="85" viewBox="0 0 85 85" fill="none" xmlns="http://www.w3.org/2000/svg">
<path d="M60.2083 12.396H24.7916C14.1666 12.396 7.08325 17.7085 7.08325 30.1043V54.896C7.08325 67.2918 14.1666 72.6043 24.7916 72.6043H60.2083C70.8333 72.6043 77.9166 67.2918 77.9166 54.896V30.1043C77.9166 17.7085 70.8333 12.396 60.2083 12.396ZM28.3333 62.8647H17.7083C16.2562 62.8647 15.052 61.6606 15.052 60.2085C15.052 58.7564 16.2562 57.5522 17.7083 57.5522H28.3333C29.7853 57.5522 30.9895 58.7564 30.9895 60.2085C30.9895 61.6606 29.7853 62.8647 28.3333 62.8647ZM42.4999 53.1252C36.6208 53.1252 31.8749 48.3793 31.8749 42.5002C31.8749 36.621 36.6208 31.8752 42.4999 31.8752C48.3791 31.8752 53.1249 36.621 53.1249 42.5002C53.1249 48.3793 48.3791 53.1252 42.4999 53.1252ZM67.2916 27.4481H56.6666C55.2145 27.4481 54.0103 26.2439 54.0103 24.7918C54.0103 23.3397 55.2145 22.1356 56.6666 22.1356H67.2916C68.7437 22.1356 69.9478 23.3397 69.9478 24.7918C69.9478 26.2439 68.7437 27.4481 67.2916 27.4481Z" fill="#0F7DFF"/>
</svg>
