<svg width="85" height="85" viewBox="0 0 85 85" fill="none" xmlns="http://www.w3.org/2000/svg">
<path d="M70.8333 21.2502V22.1002H52.6645C42.1458 22.1002 37.2583 26.9877 37.2583 37.5064V55.6043H34.5312V68.1772H37.2583V73.4897H17.5312C16.0791 73.4897 14.8749 72.2856 14.8749 70.8335C14.8749 69.3814 16.0791 68.1772 17.5312 68.1772H29.2187V55.6043H21.2499C10.1645 55.6043 7.1895 52.8772 7.08325 42.146V21.2502C7.08325 9.91683 9.91659 7.0835 21.2499 7.0835H56.6666C67.9999 7.0835 70.8333 9.91683 70.8333 21.2502Z" fill="#0F7DFF"/>
<path d="M70.8333 27.5824C69.9479 27.4761 68.9208 27.4053 67.8229 27.4053H52.6645C45.0854 27.4053 42.5708 29.9199 42.5708 37.499V68.1699C42.6062 70.3657 42.8541 72.1011 43.3854 73.4824C44.625 76.7053 47.4229 77.9094 52.6645 77.9094H67.8229C75.4021 77.9094 77.9166 75.3949 77.9166 67.8157V37.499C77.9166 31.0178 76.075 28.2553 70.8333 27.5824ZM60.2437 35.7282C63.325 35.7282 65.8041 38.2074 65.8041 41.2886C65.8041 44.3699 63.325 46.849 60.2437 46.849C57.1625 46.849 54.6833 44.3699 54.6833 41.2886C54.6833 38.2074 57.1625 35.7282 60.2437 35.7282ZM60.2437 67.8157C56.0646 67.8157 52.6645 64.4157 52.6645 60.2365C52.6665 58.785 53.0849 57.3644 53.87 56.1435C54.6551 54.9226 55.774 53.9525 57.094 53.3485C58.4139 52.7445 59.8794 52.5318 61.3166 52.7357C62.7538 52.9397 64.1023 53.5516 65.202 54.499C66.7958 55.9157 67.8229 57.9699 67.8229 60.2365C67.8229 64.4157 64.4229 67.8157 60.2437 67.8157Z" fill="#0F7DFF"/>
<path d="M70.8333 27.5824C69.9479 27.4761 68.9208 27.4053 67.8229 27.4053H52.6645C45.0854 27.4053 42.5708 29.9199 42.5708 37.499V68.1699C42.6062 70.3657 42.8541 72.1011 43.3854 73.4824C44.625 76.7053 47.4229 77.9094 52.6645 77.9094H67.8229C75.4021 77.9094 77.9166 75.3949 77.9166 67.8157V37.499C77.9166 31.0178 76.075 28.2553 70.8333 27.5824ZM60.2437 35.7282C63.325 35.7282 65.8041 38.2074 65.8041 41.2886C65.8041 44.3699 63.325 46.849 60.2437 46.849C57.1625 46.849 54.6833 44.3699 54.6833 41.2886C54.6833 38.2074 57.1625 35.7282 60.2437 35.7282ZM60.2437 67.8157C56.0646 67.8157 52.6645 64.4157 52.6645 60.2365C52.6665 58.785 53.0849 57.3644 53.87 56.1435C54.6551 54.9226 55.774 53.9525 57.094 53.3485C58.4139 52.7445 59.8794 52.5318 61.3166 52.7357C62.7538 52.9397 64.1023 53.5516 65.202 54.499C66.7958 55.9157 67.8229 57.9699 67.8229 60.2365C67.8229 64.4157 64.4229 67.8157 60.2437 67.8157Z" fill="#0F7DFF"/>
</svg>
