<svg width="26" height="14" viewBox="0 0 26 14" fill="none" xmlns="http://www.w3.org/2000/svg">
<path fill-rule="evenodd" clip-rule="evenodd" d="M0.293753 0.293712C0.386634 0.200609 0.496972 0.126742 0.618448 0.0763422C0.739924 0.0259421 0.870151 0 1.00167 0C1.13319 0 1.26342 0.0259421 1.38489 0.0763422C1.50637 0.126742 1.61671 0.200609 1.70959 0.293712L13.0003 11.5848L24.2909 0.293712C24.3839 0.20076 24.4943 0.127026 24.6157 0.0767207C24.7372 0.0264153 24.8674 0.000523434 24.9989 0.000523434C25.1303 0.000523434 25.2605 0.0264153 25.382 0.0767207C25.5034 0.127026 25.6138 0.20076 25.7068 0.293712C25.7997 0.386664 25.8735 0.497014 25.9238 0.618462C25.9741 0.73991 26 0.870077 26 1.00153C26 1.13299 25.9741 1.26315 25.9238 1.3846C25.8735 1.50605 25.7997 1.6164 25.7068 1.70935L13.7082 13.7063C13.6153 13.7994 13.505 13.8733 13.3835 13.9237C13.262 13.9741 13.1318 14 13.0003 14C12.8687 14 12.7385 13.9741 12.617 13.9237C12.4956 13.8733 12.3852 13.7994 12.2923 13.7063L0.293753 1.70935C0.200638 1.61648 0.126761 1.50616 0.0763537 1.3847C0.0259467 1.26324 0 1.13303 0 1.00153C0 0.87003 0.0259467 0.739821 0.0763537 0.618362C0.126761 0.496903 0.200638 0.38658 0.293753 0.293712Z" fill="black"/>
</svg>
