<svg width="32" height="30" viewBox="0 0 32 30" fill="none" xmlns="http://www.w3.org/2000/svg">
<path d="M18.6667 21.25H9.33333V18.75H18.6667V21.25ZM22.6667 16.25H9.33333V13.75H22.6667V16.25ZM22.6667 11.25H9.33333V8.75H22.6667V11.25ZM25.3333 3.75H6.66667C5.18667 3.75 4 4.8625 4 6.25V23.75C4 24.413 4.28095 25.0489 4.78105 25.5178C5.28115 25.9866 5.95942 26.25 6.66667 26.25H25.3333C26.0406 26.25 26.7189 25.9866 27.219 25.5178C27.719 25.0489 28 24.413 28 23.75V6.25C28 4.8625 26.8 3.75 25.3333 3.75Z" fill="white"/>
</svg>
