<svg width="40" height="40" viewBox="0 0 40 40" fill="none" xmlns="http://www.w3.org/2000/svg">
<path d="M39.84 29.4973C39.18 34.8173 34.82 39.1773 29.5 39.8373C26.28 40.2373 23.28 39.3573 20.94 37.6373C19.6 36.6573 19.92 34.5773 21.52 34.0973C24.4914 33.1893 27.1943 31.5656 29.3913 29.3686C31.5883 27.1716 33.2121 24.4687 34.12 21.4973C34.6 19.9173 36.68 19.5973 37.66 20.9173C39.4499 23.3966 40.2293 26.4642 39.84 29.4973Z" fill="white"/>
<path d="M15.98 0C7.16 0 0 7.16 0 15.98C0 24.8 7.16 31.96 15.98 31.96C24.8 31.96 31.96 24.8 31.96 15.98C31.94 7.16 24.8 0 15.98 0ZM14.1 13.74L18.92 15.42C20.66 16.04 21.5 17.26 21.5 19.14C21.5 21.3 19.78 23.08 17.68 23.08H17.5V23.18C17.5 24 16.82 24.68 16 24.68C15.18 24.68 14.5 24 14.5 23.18V23.06C12.28 22.96 10.5 21.1 10.5 18.78C10.5 17.96 11.18 17.28 12 17.28C12.82 17.28 13.5 17.96 13.5 18.78C13.5 19.5 14.02 20.08 14.66 20.08H17.66C18.12 20.08 18.48 19.66 18.48 19.14C18.48 18.44 18.36 18.4 17.9 18.24L13.08 16.56C11.36 15.96 10.5 14.74 10.5 12.84C10.5 10.68 12.22 8.9 14.32 8.9H14.5V8.82C14.5 8 15.18 7.32 16 7.32C16.82 7.32 17.5 8 17.5 8.82V8.94C19.72 9.04 21.5 10.9 21.5 13.22C21.5 14.04 20.82 14.72 20 14.72C19.18 14.72 18.5 14.04 18.5 13.22C18.5 12.5 17.98 11.92 17.34 11.92H14.34C13.88 11.92 13.52 12.34 13.52 12.86C13.5 13.54 13.62 13.58 14.1 13.74Z" fill="white"/>
</svg>
