<svg width="85" height="85" viewBox="0 0 85 85" fill="none" xmlns="http://www.w3.org/2000/svg">
<path d="M44.8942 70.6879C45.8681 70.9146 45.9567 72.1896 45.0075 72.5048L39.4117 74.3465C25.3512 78.8798 17.9492 75.0902 13.3804 61.0298L8.84707 47.0402C4.31374 32.9798 8.06791 25.5423 22.1283 21.009L23.9842 20.3927C25.4114 19.9217 26.7998 21.3525 26.3925 22.8011C26.1942 23.5165 26.0029 24.2673 25.8117 25.0465L22.3408 39.8861C18.445 56.5673 24.1471 65.7756 40.8283 69.7423L44.8942 70.6879Z" fill="#0F7DFF"/>
<path d="M60.8105 11.3654L54.8959 9.98413C43.0667 7.18621 36.0188 9.4883 31.8751 18.0591C30.8126 20.2195 29.9626 22.8404 29.2542 25.8508L25.7834 40.6904C22.3126 55.4945 26.8813 62.7904 41.6501 66.2966L47.6001 67.7133C49.6542 68.2091 51.5667 68.5279 53.3376 68.6695C64.3876 69.732 70.2667 64.5612 73.2417 51.7758L76.7126 36.9716C80.1834 22.1675 75.6501 14.8362 60.8105 11.3654ZM54.1521 47.207C53.8334 48.4112 52.7709 49.1904 51.5667 49.1904C51.3542 49.1904 51.1417 49.155 50.8938 49.1195L40.5876 46.4987C39.9485 46.288 39.4132 45.8425 39.0899 45.2524C38.7666 44.6622 38.6793 43.9714 38.8457 43.3193C39.012 42.6673 39.4197 42.1027 39.9863 41.7396C40.5528 41.3766 41.2361 41.2421 41.898 41.3633L52.2042 43.9841C53.6563 44.3383 54.5063 45.7904 54.1521 47.207ZM64.5292 35.2362C64.2105 36.4404 63.148 37.2195 61.9438 37.2195C61.7313 37.2195 61.5188 37.1841 61.2709 37.1487L44.0938 32.7925C43.4547 32.5817 42.9195 32.1363 42.5961 31.5461C42.2728 30.956 42.1855 30.2651 42.3519 29.6131C42.5183 28.961 42.9259 28.3965 43.4925 28.0334C44.0591 27.6703 44.7423 27.5358 45.4042 27.657L62.5813 32.0133C64.0334 32.332 64.8834 33.7841 64.5292 35.2362Z" fill="#0F7DFF"/>
</svg>
