<svg width="40" height="40" viewBox="0 0 40 40" fill="none" xmlns="http://www.w3.org/2000/svg">
<path d="M28.38 0H11.62C4.34 0 0 4.34 0 11.62V28.36C0 35.66 4.34 40 11.62 40H28.36C35.64 40 39.98 35.66 39.98 28.38V11.62C40 4.34 35.66 0 28.38 0ZM31.7 24.2C31.62 24.38 31.52 24.54 31.38 24.68L25.3 30.76C25 31.06 24.62 31.2 24.24 31.2C23.86 31.2 23.48 31.06 23.18 30.76C22.901 30.4777 22.7446 30.0969 22.7446 29.7C22.7446 29.3031 22.901 28.9223 23.18 28.64L26.7 25.12H9.7C8.88 25.12 8.2 24.44 8.2 23.62C8.2 22.8 8.88 22.12 9.7 22.12H30.32C30.52 22.12 30.7 22.16 30.9 22.24C31.26 22.4 31.56 22.68 31.72 23.06C31.84 23.42 31.84 23.84 31.7 24.2ZM30.3 17.86H9.7C9.5 17.86 9.32 17.82 9.12 17.74C8.75169 17.5818 8.45816 17.2883 8.3 16.92C8.22088 16.7404 8.18002 16.5463 8.18002 16.35C8.18002 16.1537 8.22088 15.9596 8.3 15.78C8.38 15.6 8.48 15.44 8.62 15.3L14.7 9.22C15.28 8.64 16.24 8.64 16.82 9.22C17.4 9.8 17.4 10.76 16.82 11.34L13.32 14.86H30.32C31.14 14.86 31.82 15.54 31.82 16.36C31.82 17.18 31.14 17.86 30.3 17.86Z" fill="white"/>
</svg>
