<svg width="85" height="85" viewBox="0 0 85 85" fill="none" xmlns="http://www.w3.org/2000/svg">
<path d="M18.8771 68.7826C18.4876 68.7826 18.0626 68.6763 17.7084 68.4992L9.8459 64.568C9.4107 64.3422 9.04544 64.0019 8.78953 63.5837C8.53362 63.1655 8.39679 62.6853 8.39382 62.1951V52.3492C8.39382 50.8972 9.59798 49.693 11.0501 49.693C12.5021 49.693 13.7063 50.8972 13.7063 52.3492V60.5305L20.0813 63.7534C21.3917 64.3909 21.923 65.9846 21.2501 67.2951C20.7896 68.2159 19.8688 68.7826 18.8771 68.7826ZM42.5001 80.5692C42.2975 80.5652 42.0959 80.5415 41.898 80.4984C41.6746 80.447 41.4599 80.3635 41.2605 80.2505L33.4334 76.3547C32.8056 76.0334 32.3283 75.4795 32.1033 74.8112C31.8783 74.1428 31.9235 73.413 32.2292 72.7776C32.9022 71.4671 34.4959 70.9359 35.8063 71.5734L39.8438 73.5921V68.0672C39.8438 66.6151 41.048 65.4109 42.5001 65.4109C43.9522 65.4109 45.1563 66.6151 45.1563 68.0672V73.5921L49.1938 71.5734C50.5042 70.9359 52.098 71.4671 52.7709 72.7776C53.4438 74.088 52.9126 75.6817 51.5667 76.3547L43.7397 80.2505C43.5272 80.3567 43.3147 80.4276 43.1021 80.4984C42.8897 80.5338 42.7126 80.5692 42.5001 80.5692ZM66.123 68.779C65.1667 68.779 64.2105 68.2478 63.7501 67.3269C63.5901 67.0138 63.4944 66.6718 63.4685 66.3212C63.4426 65.9705 63.487 65.6182 63.5992 65.2849C63.7114 64.9517 63.889 64.6442 64.1217 64.3806C64.3544 64.117 64.6375 63.9025 64.9542 63.7499L71.3646 60.5624V52.3811C71.3646 50.929 72.5688 49.7249 74.0209 49.7249C75.473 49.7249 76.6771 50.929 76.6771 52.3811V62.2269C76.6771 63.2186 76.1105 64.1394 75.2251 64.5999L67.2917 68.4957C66.9269 68.6727 66.5284 68.7693 66.123 68.779ZM42.5001 51.0707C41.048 51.0707 39.8438 49.8665 39.8438 48.4144V40.2332L33.4334 37.0457C32.8056 36.7245 32.3283 36.1705 32.1033 35.5022C31.8783 34.8339 31.9235 34.1041 32.2292 33.4686C32.9022 32.1582 34.4959 31.6269 35.8063 32.2644L42.5001 35.5936L49.1938 32.2644C50.5042 31.6269 52.098 32.1228 52.7709 33.4686C53.4438 34.779 52.9126 36.3728 51.5667 37.0457L45.1563 40.2332V48.4144C45.1563 49.8665 43.9522 51.0707 42.5001 51.0707ZM11.0146 35.3032C9.56257 35.3032 8.3584 34.099 8.3584 32.6469V22.8365C8.35957 22.338 8.49408 21.8489 8.74798 21.4199C8.85423 21.2428 8.9959 21.1011 9.13757 20.9594C9.27923 20.8178 9.45632 20.6761 9.6334 20.5699C9.70423 20.5344 9.81048 20.4636 9.88132 20.4282L17.7084 16.4969C19.0188 15.8594 20.6126 16.3907 21.2501 17.7011C21.923 19.0115 21.3917 20.6053 20.0813 21.2428L16.9646 22.8011L20.0813 24.3594C21.3917 25.0324 21.923 26.6261 21.2501 27.9365C20.6126 29.2469 19.0188 29.7782 17.7084 29.1407L13.6709 27.1219V32.6469C13.6709 34.1344 12.5021 35.3032 11.0146 35.3032ZM50.3626 13.6672C49.973 13.6672 49.548 13.5609 49.1938 13.3838L42.5001 10.0547L35.8063 13.3838C34.4959 14.0567 32.9021 13.5255 32.2646 12.2151C32.1059 11.9036 32.0102 11.5638 31.983 11.2153C31.9558 10.8667 31.9977 10.5162 32.1063 10.1839C32.2149 9.85154 32.388 9.54391 32.6158 9.27863C32.8435 9.01336 33.1213 8.79565 33.4334 8.63799L41.2959 4.70674C42.0396 4.31715 42.9251 4.31715 43.6688 4.70674L51.5313 8.63799C52.8417 9.3109 53.373 10.9047 52.7355 12.2151C52.2751 13.1359 51.3542 13.6672 50.3626 13.6672ZM73.9855 35.3032C72.5334 35.3032 71.3292 34.099 71.3292 32.6469V27.1219L67.2917 29.1407C65.9813 29.7782 64.3876 29.2469 63.7501 27.9365C63.5901 27.6234 63.4944 27.2814 63.4685 26.9308C63.4426 26.5801 63.487 26.2278 63.5992 25.8945C63.7114 25.5613 63.889 25.2538 64.1217 24.9902C64.3544 24.7266 64.6375 24.5121 64.9542 24.3594L68.0709 22.8011L64.9188 21.2428C64.6067 21.0901 64.3282 20.8766 64.0998 20.6147C63.8714 20.3529 63.6976 20.048 63.5887 19.718C63.4798 19.3881 63.438 19.0397 63.4657 18.6933C63.4934 18.3469 63.5901 18.0096 63.7501 17.7011C64.423 16.3907 65.9813 15.8594 67.2917 16.4969L75.1188 20.3928C75.1896 20.4282 75.2959 20.4636 75.3667 20.5344C75.5792 20.6407 75.7563 20.8178 75.9334 20.9949L76.2522 21.4199C76.3938 21.6678 76.5001 21.9157 76.5709 22.199C76.6063 22.4115 76.6417 22.624 76.6417 22.8011V32.6115C76.6417 34.1344 75.4376 35.3032 73.9855 35.3032Z" fill="#0F7DFF"/>
</svg>
