<svg width="85" height="85" viewBox="0 0 85 85" fill="none" xmlns="http://www.w3.org/2000/svg">
<path d="M74.2687 56.9502C73.4187 66.4064 66.5832 72.6043 56.6666 72.6043H24.7916C15.0166 72.6043 7.08325 64.671 7.08325 54.896V30.1043C7.08325 20.471 12.8916 13.7418 21.9228 12.6085C22.8437 12.4668 23.7999 12.396 24.7916 12.396H56.6666C57.5874 12.396 58.4728 12.4314 59.3228 12.5731C67.7874 13.5647 73.5249 19.4793 74.2687 28.0502C74.2886 28.2927 74.2573 28.5367 74.1768 28.7664C74.0963 28.996 73.9684 29.2062 73.8014 29.3832C73.6344 29.5602 73.4321 29.7001 73.2075 29.7939C72.9829 29.8876 72.7411 29.933 72.4978 29.9272H67.0083C63.6082 29.9272 60.4562 31.2377 58.1895 33.5752C55.4978 36.196 54.152 39.8793 54.4707 43.5627C55.0374 50.0085 60.7041 55.0731 67.4333 55.0731H72.4978C73.5249 55.0731 74.3749 55.9231 74.2687 56.9502Z" fill="#0F7DFF"/>
<path d="M77.9166 38.8522V46.1481C77.9166 48.096 76.3583 49.6897 74.375 49.7606H67.4333C63.6083 49.7606 60.102 46.9627 59.7833 43.1377C59.5708 40.9064 60.4208 38.8168 61.9083 37.3647C63.2187 36.0189 65.025 35.2397 67.0083 35.2397H74.375C76.3583 35.3106 77.9166 36.9043 77.9166 38.8522Z" fill="#0F7DFF"/>
<path d="M26 50.7667C26 55.0667 29.2654 58.5333 33.3223 58.5333H41.6012C45.1304 58.5333 48 55.5 48 51.7667C48 47.7 46.2519 46.2667 43.6462 45.3333L30.3538 40.6667C27.7481 39.7333 26 38.3 26 34.2333C26 30.5 28.8696 27.4667 32.3988 27.4667H40.6777C44.7346 27.4667 48 30.9333 48 35.2333M36.9769 23V63" stroke="white" stroke-width="6" stroke-linecap="round" stroke-linejoin="round"/>
</svg>
