<svg width="45" height="34" viewBox="0 0 45 34" fill="none" xmlns="http://www.w3.org/2000/svg">
<path fill-rule="evenodd" clip-rule="evenodd" d="M16.875 4.25C16.875 3.12283 17.3195 2.04183 18.1106 1.2448C18.9018 0.447767 19.9749 0 21.0938 0H23.9062C25.0251 0 26.0982 0.447767 26.8894 1.2448C27.6805 2.04183 28.125 3.12283 28.125 4.25V7.08333C28.125 8.2105 27.6805 9.29151 26.8894 10.0885C26.0982 10.8856 25.0251 11.3333 23.9062 11.3333V14.1667H39.375C39.748 14.1667 40.1056 14.3159 40.3694 14.5816C40.6331 14.8473 40.7812 15.2076 40.7812 15.5833V18.4167C40.7812 18.7924 40.6331 19.1527 40.3694 19.4184C40.1056 19.6841 39.748 19.8333 39.375 19.8333C39.002 19.8333 38.6444 19.6841 38.3806 19.4184C38.1169 19.1527 37.9688 18.7924 37.9688 18.4167V17H23.9062V18.4167C23.9062 18.7924 23.7581 19.1527 23.4944 19.4184C23.2306 19.6841 22.873 19.8333 22.5 19.8333C22.127 19.8333 21.7694 19.6841 21.5056 19.4184C21.2419 19.1527 21.0938 18.7924 21.0938 18.4167V17H7.03125V18.4167C7.03125 18.7924 6.88309 19.1527 6.61937 19.4184C6.35565 19.6841 5.99796 19.8333 5.625 19.8333C5.25204 19.8333 4.89435 19.6841 4.63063 19.4184C4.36691 19.1527 4.21875 18.7924 4.21875 18.4167V15.5833C4.21875 15.2076 4.36691 14.8473 4.63063 14.5816C4.89435 14.3159 5.25204 14.1667 5.625 14.1667H21.0938V11.3333C19.9749 11.3333 18.9018 10.8856 18.1106 10.0885C17.3195 9.29151 16.875 8.2105 16.875 7.08333V4.25ZM0 26.9167C0 25.7895 0.444474 24.7085 1.23564 23.9115C2.02681 23.1144 3.09987 22.6667 4.21875 22.6667H7.03125C8.15013 22.6667 9.22319 23.1144 10.0144 23.9115C10.8055 24.7085 11.25 25.7895 11.25 26.9167V29.75C11.25 30.8772 10.8055 31.9582 10.0144 32.7552C9.22319 33.5522 8.15013 34 7.03125 34H4.21875C3.09987 34 2.02681 33.5522 1.23564 32.7552C0.444474 31.9582 0 30.8772 0 29.75L0 26.9167ZM16.875 26.9167C16.875 25.7895 17.3195 24.7085 18.1106 23.9115C18.9018 23.1144 19.9749 22.6667 21.0938 22.6667H23.9062C25.0251 22.6667 26.0982 23.1144 26.8894 23.9115C27.6805 24.7085 28.125 25.7895 28.125 26.9167V29.75C28.125 30.8772 27.6805 31.9582 26.8894 32.7552C26.0982 33.5522 25.0251 34 23.9062 34H21.0938C19.9749 34 18.9018 33.5522 18.1106 32.7552C17.3195 31.9582 16.875 30.8772 16.875 29.75V26.9167ZM33.75 26.9167C33.75 25.7895 34.1945 24.7085 34.9856 23.9115C35.7768 23.1144 36.8499 22.6667 37.9688 22.6667H40.7812C41.9001 22.6667 42.9732 23.1144 43.7644 23.9115C44.5555 24.7085 45 25.7895 45 26.9167V29.75C45 30.8772 44.5555 31.9582 43.7644 32.7552C42.9732 33.5522 41.9001 34 40.7812 34H37.9688C36.8499 34 35.7768 33.5522 34.9856 32.7552C34.1945 31.9582 33.75 30.8772 33.75 29.75V26.9167Z" fill="white"/>
</svg>
