<svg width="85" height="85" viewBox="0 0 85 85" fill="none" xmlns="http://www.w3.org/2000/svg">
<path d="M63.75 46.0415C53.975 46.0415 46.0416 53.9748 46.0416 63.7498C46.0416 73.5248 53.975 81.4582 63.75 81.4582C73.525 81.4582 81.4583 73.5248 81.4583 63.7498C81.4583 53.9748 73.525 46.0415 63.75 46.0415ZM60.775 68.2478C61.6604 69.1332 61.6604 70.5853 60.775 71.5061C60.3145 71.9665 59.7479 72.179 59.1458 72.179C58.5437 72.179 57.977 71.9665 57.5166 71.5061L51.3895 65.379C50.9638 64.9436 50.7255 64.3588 50.7255 63.7498C50.7255 63.1409 50.9638 62.5561 51.3895 62.1207L57.5166 55.9936C58.402 55.1082 59.8541 55.1082 60.775 55.9936C61.6604 56.879 61.6604 58.3311 60.775 59.2519L56.277 63.7498L60.775 68.2478ZM76.075 65.379L69.9479 71.5061C69.4875 71.9665 68.9208 72.179 68.3187 72.179C67.7166 72.179 67.15 71.9665 66.6895 71.5061C66.2638 71.0707 66.0255 70.4859 66.0255 69.8769C66.0255 69.268 66.2638 68.6832 66.6895 68.2478L71.2229 63.7498L66.725 59.2519C66.2992 58.8165 66.0609 58.2317 66.0609 57.6228C66.0609 57.0138 66.2992 56.429 66.725 55.9936C67.6104 55.1082 69.0625 55.1082 69.9833 55.9936L76.1104 62.1207C76.9604 63.0415 76.9604 64.4582 76.075 65.379Z" fill="#0F7DFF"/>
<path d="M74.375 24.7918V40.6231C74.375 41.8626 73.1708 42.7126 72.0375 42.2876C67.9235 40.687 63.4354 40.3058 59.1104 41.1897C49.9021 43.0314 42.5708 50.5751 41.0479 59.8543C40.1271 65.521 41.2604 70.8689 43.8458 75.2251C44.0098 75.4944 44.0988 75.8025 44.1039 76.1177C44.1089 76.4329 44.0297 76.7437 43.8745 77.018C43.7193 77.2924 43.4936 77.5203 43.2209 77.6783C42.9481 77.8363 42.6381 77.9187 42.3229 77.9168H28.3333C15.9375 77.9168 10.625 70.8335 10.625 60.2085V24.7918C10.625 15.371 14.8042 8.74806 24.4021 7.36681C25.4292 7.22514 26.35 8.03973 26.3854 9.10223L26.4917 12.6793C26.5979 18.346 31.3792 23.021 37.1167 23.021H47.8125C53.6562 23.021 58.4375 18.2397 58.4375 12.396V9.10223C58.4375 8.03973 59.3583 7.18973 60.3854 7.33139C70.125 8.64181 74.375 15.3001 74.375 24.7918Z" fill="#0F7DFF"/>
<path d="M53.125 10.6248V12.3957C53.125 15.2998 50.7167 17.7082 47.8125 17.7082H37.0812C34.2125 17.7082 31.8396 15.4061 31.7687 12.5373L31.7333 10.7311C31.7146 10.256 31.7926 9.78205 31.9626 9.338C32.1325 8.89396 32.391 8.48908 32.7222 8.14795C33.0534 7.80681 33.4504 7.53652 33.8893 7.35349C34.3281 7.17045 34.7995 7.07849 35.275 7.08318H49.5833C51.5312 7.08318 53.125 8.67693 53.125 10.6248Z" fill="#0F7DFF"/>
</svg>
